# xmcd
#
# Track frame offsets: 
#        150
#        14425
#        47088
#        76385
#        96299
#        122214
#        154215
#        176693
#        203191
#        221094
#
# Disc length: 3137 seconds
#
# Revision: 0
# Processed by: cddbd v1.5.1PL2 Copyright (c) Steve Scherf et al.
# Submitted via: ExactAudioCopy v0.95b2
#
DISCID=8b0c3f0a
DTITLE=lower case blues featuring Johnny Neel - One More For The Road
DYEAR=2005
DGENRE=Blues
TTITLE0=Got Me On Hold
TTITLE1=Backporch Blues
TTITLE2=No One Around
TTITLE3=My Way Back Home
TTITLE4=Jude's Diner (floor fried) Blues
TTITLE5=Set Back
TTITLE6=Back To My Old Ways Again
TTITLE7=Keep Holdin' On
TTITLE8=Whiskey In The Dark
TTITLE9=Backporch Blues (backporch version)
EXTD=
EXTT0=
EXTT1=
EXTT2=
EXTT3=
EXTT4=
EXTT5=
EXTT6=
EXTT7=
EXTT8=
EXTT9=
PLAYORDER=
